<mxfile host="app.diagrams.net" modified="2024-04-26T12:54:26.446Z" agent="Mozilla/5.0 (Windows NT 10.0; Win64; x64) AppleWebKit/537.36 (KHTML, like Gecko) Chrome/123.0.0.0 Safari/537.36 Edg/123.0.0.0" etag="yo7rozbvo4cQjkjM4NU_" version="24.3.0" type="device">
  <diagram name="Page-1" id="cYW9HCSEMIairnx3rIKb">
    <mxGraphModel dx="1050" dy="573" grid="1" gridSize="10" guides="1" tooltips="1" connect="1" arrows="1" fold="1" page="1" pageScale="1" pageWidth="827" pageHeight="1169" math="0" shadow="0">
      <root>
        <mxCell id="0" />
        <mxCell id="1" parent="0" />
        <mxCell id="oq5KaZhWg4OQwYg9W0pc-1" value="&lt;h1 style=&quot;margin-top: 0px;&quot;&gt;&lt;span style=&quot;color: rgb(32, 33, 36); font-family: Roboto, arial, sans-serif; font-size: 13px; font-weight: 400; white-space-collapse: preserve; background-color: rgb(255, 255, 255);&quot;&gt;1. Create a Notification&lt;br/&gt;2. Send a Notification&lt;br/&gt;3. List Notifications&lt;br/&gt;4. Update a notification&lt;/span&gt;&lt;br&gt;&lt;/h1&gt;" style="text;html=1;whiteSpace=wrap;overflow=hidden;rounded=0;" vertex="1" parent="1">
          <mxGeometry x="60" y="180" width="410" height="210" as="geometry" />
        </mxCell>
        <mxCell id="oq5KaZhWg4OQwYg9W0pc-2" value="&lt;br&gt;marketing team may use this apis&lt;br&gt;&lt;br&gt;&lt;br&gt;Create&lt;br&gt;{&lt;br&gt;crypto asset prcing&lt;br&gt;&lt;br&gt;current market price&lt;br&gt;&lt;br&gt;daily trading vol&lt;br&gt;&lt;br&gt;high and low price of the day&lt;br&gt;&lt;br&gt;&lt;br&gt;}&lt;br&gt;&lt;br&gt;&lt;br&gt;&lt;br&gt;channel is email&lt;br&gt;to email id or list of ids&lt;br&gt;takes email ids&lt;br&gt;&lt;div&gt;&lt;br&gt;&lt;br&gt;list&lt;br&gt;return all notification in database&lt;br&gt;good to have filters&lt;br&gt;outstanding state&lt;br&gt;pending&lt;br&gt;delivered (success)&lt;br&gt;failed status&lt;br&gt;&lt;br&gt;&amp;nbsp;- paginated api&lt;br&gt;&lt;br&gt;&lt;br&gt;update&lt;br&gt;(internal api)&lt;br&gt;&lt;br&gt;&lt;br&gt;deleting &lt;br&gt;- soft delete&lt;br&gt;&lt;br&gt;&lt;/div&gt;" style="text;html=1;align=center;verticalAlign=middle;whiteSpace=wrap;rounded=0;" vertex="1" parent="1">
          <mxGeometry x="390" y="170" width="310" height="621" as="geometry" />
        </mxCell>
      </root>
    </mxGraphModel>
  </diagram>
</mxfile>
